<?xml version="1.0" standalone="no"?>
<!DOCTYPE svg PUBLIC "-//W3C//DTD SVG 20010904//EN"
 "http://www.w3.org/TR/2001/REC-SVG-20010904/DTD/svg10.dtd">
<svg version="1.0" xmlns="http://www.w3.org/2000/svg"
 width="1000.000000pt" height="1000.000000pt" viewBox="0 0 1000.000000 1000.000000"
 preserveAspectRatio="xMidYMid meet">
<metadata>
Created by potrace 1.14, written by Peter Selinger 2001-2017
</metadata>
<g transform="translate(0.000000,1000.000000) scale(0.100000,-0.100000)"
fill="#000000" stroke="none">
<path d="M0 5000 l0 -5000 5000 0 5000 0 0 5000 0 5000 -5000 0 -5000 0 0
-5000z m4670 4480 c0 -5 -5 -10 -11 -10 -5 0 -7 5 -4 10 3 6 8 10 11 10 2 0 4
-4 4 -10z m117 4 c-3 -3 -12 -4 -19 -1 -8 3 -5 6 6 6 11 1 17 -2 13 -5z m513
2 c0 -2 -7 -7 -16 -10 -8 -3 -12 -2 -9 4 6 10 25 14 25 6z m-490 -11 c0 -8
-62 -37 -68 -31 -3 3 0 6 7 6 7 0 9 5 5 12 -4 7 -3 8 4 4 7 -4 20 -2 29 3 21
12 23 13 23 6z m90 -9 c0 -2 -7 -7 -16 -10 -8 -3 -12 -2 -9 4 6 10 25 14 25 6z
m-460 -10 c0 -2 -7 -7 -16 -10 -8 -3 -12 -2 -9 4 6 10 25 14 25 6z m397 -2
c-3 -3 -12 -4 -19 -1 -8 3 -5 6 6 6 11 1 17 -2 13 -5z m310 0 c-3 -3 -12 -4
-19 -1 -8 3 -5 6 6 6 11 1 17 -2 13 -5z m703 -64 c18 -12 2 -12 -25 0 -13 6
-15 9 -5 9 8 0 22 -4 30 -9z m340 -64 c0 -2 -7 -7 -16 -10 -8 -3 -12 -2 -9 4
6 10 25 14 25 6z m37 -2 c-3 -3 -12 -4 -19 -1 -8 3 -5 6 6 6 11 1 17 -2 13 -5z
m200 -70 c-3 -3 -12 -4 -19 -1 -8 3 -5 6 6 6 11 1 17 -2 13 -5z m-2877 -8 c0
-2 -7 -7 -16 -10 -8 -3 -12 -2 -9 4 6 10 25 14 25 6z m2923 -3 c-7 -2 -19 -2
-25 0 -7 3 -2 5 12 5 14 0 19 -2 13 -5z m-26 -19 c-3 -3 -12 -4 -19 -1 -8 3
-5 6 6 6 11 1 17 -2 13 -5z m43 2 c0 -3 -4 -8 -10 -11 -5 -3 -10 -1 -10 4 0 6
5 11 10 11 6 0 10 -2 10 -4z m200 -76 c-8 -5 -19 -10 -25 -10 -5 0 -3 5 5 10
8 5 20 10 25 10 6 0 3 -5 -5 -10z m-3415 -10 c-3 -5 -12 -10 -18 -10 -7 0 -6
4 3 10 19 12 23 12 15 0z m-79 -66 c-1 -7 -6 -17 -11 -21 -4 -4 -5 -2 -1 5 5
8 -2 16 -18 22 -34 13 -33 18 3 12 17 -2 28 -10 27 -18z m-38 -10 c5 3 9 -1 9
-9 0 -16 -31 -4 -43 18 -6 8 -3 8 9 -1 9 -8 20 -11 25 -8z m3742 -10 c0 -8
-19 -13 -24 -6 -3 5 1 9 9 9 8 0 15 -2 15 -3z m155 -52 c-3 -3 -11 0 -18 7 -9
10 -8 11 6 5 10 -3 15 -9 12 -12z m-4098 -17 c0 -8 -3 -13 -5 -10 -3 3 -11 0
-17 -5 -9 -8 -14 -6 -18 4 -4 10 -1 13 7 10 8 -3 17 -1 21 5 9 15 12 14 12 -4z
m78 5 c3 -6 -1 -7 -9 -4 -18 7 -21 14 -7 14 6 0 13 -4 16 -10z m4040 -10 c4
-6 -1 -7 -11 -3 -13 5 -15 3 -9 -7 5 -9 4 -11 -4 -6 -6 4 -9 12 -6 17 8 12 22
12 30 -1z m-4204 -33 c-10 -9 -11 -8 -5 6 3 10 9 15 12 12 3 -3 0 -11 -7 -18z
m4320 -4 c13 -16 12 -17 -3 -4 -10 7 -18 15 -18 17 0 8 8 3 21 -13z m-31 -3
c0 -5 -2 -10 -4 -10 -3 0 -8 5 -11 10 -3 6 -1 10 4 10 6 0 11 -4 11 -10z
m-4306 -17 c14 6 15 3 6 -13 -6 -11 -13 -20 -16 -20 -3 0 -2 5 2 12 5 8 2 9
-9 5 -40 -16 -52 -18 -31 -5 12 7 19 20 17 28 -4 12 -3 13 5 1 6 -8 17 -11 26
-8z m4320 -17 c-3 -9 -10 -16 -15 -16 -5 0 -4 9 3 20 14 22 21 20 12 -4z m31
4 c3 -5 1 -10 -4 -10 -6 0 -11 5 -11 10 0 6 2 10 4 10 3 0 8 -4 11 -10z
m-4505 -84 c0 -2 -7 -7 -16 -10 -8 -3 -12 -2 -9 4 6 10 25 14 25 6z m4630 -16
c8 -5 11 -10 5 -10 -5 0 -17 5 -25 10 -8 5 -10 10 -5 10 6 0 17 -5 25 -10z
m-4861 -113 c8 -10 7 -14 -2 -14 -8 0 -14 6 -14 14 0 7 1 13 2 13 2 0 8 -6 14
-13z m5161 -41 c0 -2 -7 -7 -16 -10 -8 -3 -12 -2 -9 4 6 10 25 14 25 6z
m-5267 -41 c-3 -8 -10 -15 -15 -15 -7 0 -6 5 1 13 6 8 7 18 3 22 -4 5 -2 5 5
1 7 -4 10 -13 6 -21z m31 -1 c3 -8 2 -12 -4 -9 -6 3 -10 10 -10 16 0 14 7 11
14 -7z m-39 -44 c3 -6 -1 -7 -9 -4 -18 7 -21 14 -7 14 6 0 13 -4 16 -10z m45
4 c0 -8 -19 -13 -24 -6 -3 5 1 9 9 9 8 0 15 -2 15 -3z m5405 -72 c-3 -3 -11 0
-18 7 -9 10 -8 11 6 5 10 -3 15 -9 12 -12z m-5618 -7 c0 -8 -4 -12 -9 -9 -5 3
-6 10 -3 15 9 13 12 11 12 -6z m37 7 c3 -5 -1 -9 -9 -9 -8 0 -12 4 -9 9 3 4 7
8 9 8 2 0 6 -4 9 -8z m-100 -90 c2 -4 -4 -8 -14 -8 -10 0 -16 4 -14 8 3 4 9 8
14 8 5 0 11 -4 14 -8z m-57 -39 c-4 -3 -2 -11 3 -18 6 -8 6 -12 -3 -12 -6 0
-21 -4 -32 -7 -13 -5 -12 -2 5 8 14 8 21 15 17 16 -9 0 1 20 10 20 4 0 3 -3 0
-7z m5978 -33 c10 -11 16 -20 13 -20 -3 0 -13 9 -23 20 -10 11 -16 20 -13 20
3 0 13 -9 23 -20z m-25 -5 c7 -9 8 -15 2 -15 -5 0 -12 7 -16 15 -3 8 -4 15 -2
15 2 0 9 -7 16 -15z m-6023 -39 c0 -26 -3 -31 -13 -22 -6 6 -8 13 -3 14 5 2 7
8 3 13 -4 8 2 29 10 29 1 0 3 -15 3 -34z m6186 -101 c-3 -9 -8 -14 -10 -11 -3
3 -2 9 2 15 9 16 15 13 8 -4z m-6269 -26 c3 -3 -4 -5 -14 -6 -11 -1 -22 2 -24
6 -5 8 30 8 38 0z m1651 -13 c102 -22 173 -63 256 -145 88 -88 131 -166 155
-281 58 -276 -122 -562 -401 -636 -65 -18 -206 -18 -270 0 -366 101 -527 512
-324 827 23 35 50 70 61 77 10 7 16 18 12 23 -3 5 -2 8 3 7 5 -2 29 13 53 32
118 94 296 131 455 96z m-1828 -126 c1 -11 -2 -22 -8 -25 -5 -4 -6 2 -2 12 6
16 5 16 -10 4 -9 -7 -17 -10 -17 -6 0 4 8 14 18 21 9 7 17 14 17 14 1 0 1 -9
2 -20z m6617 -18 c3 -5 -1 -9 -9 -9 -8 0 -12 4 -9 9 3 4 7 8 9 8 2 0 6 -4 9
-8z m-6720 -53 c-19 -21 -19 -21 0 -18 11 2 21 -3 23 -11 3 -9 1 -11 -4 -5 -4
6 -18 10 -30 9 -21 -1 -21 0 -5 22 9 13 21 24 26 24 5 0 1 -9 -10 -21z m39 6
c-3 -9 -8 -14 -10 -11 -3 3 -2 9 2 15 9 16 15 13 8 -4z m6751 -40 c-4 -8 -8
-15 -10 -15 -2 0 -4 7 -4 15 0 8 4 15 10 15 5 0 7 -7 4 -15z m-6869 -64 c3 -5
2 -12 -3 -15 -5 -3 -9 1 -9 9 0 17 3 19 12 6z m6953 -27 c-1 -5 -9 -9 -16 -10
-10 -2 -11 1 -1 12 12 14 24 13 17 -2z m-6990 -39 c-3 -3 -9 2 -12 12 -6 14
-5 15 5 6 7 -7 10 -15 7 -18z m6993 2 c-6 -8 -9 -16 -6 -19 3 -2 -1 -5 -9 -5
-11 0 -12 4 -3 19 7 10 16 18 21 18 4 0 3 -6 -3 -13z m40 -4 c13 -16 12 -17
-3 -4 -10 7 -18 15 -18 17 0 8 8 3 21 -13z m-16 -12 c3 -5 2 -12 -3 -15 -5 -3
-9 1 -9 9 0 17 3 19 12 6z m61 -56 c-1 -8 -8 -21 -16 -28 -10 -10 -11 -9 -4 3
5 8 9 18 10 23 3 14 4 17 8 17 2 0 3 -7 2 -15z m62 -70 c-3 -3 -9 2 -12 12 -6
14 -5 15 5 6 7 -7 10 -15 7 -18z m-7261 -7 c-3 -8 -6 -5 -6 6 -1 11 2 17 5 13
3 -3 4 -12 1 -19z m14 -31 c-10 -9 -11 -8 -5 6 3 10 9 15 12 12 3 -3 0 -11 -7
-18z m-68 -32 c-3 -9 -8 -14 -10 -11 -3 3 -2 9 2 15 9 16 15 13 8 -4z m13 -46
c0 -13 -3 -15 -13 -7 -7 6 -13 14 -13 18 0 3 6 7 13 7 7 0 13 -8 13 -18z
m7404 -30 c15 -28 5 -23 -15 7 -9 15 -12 23 -6 20 6 -4 16 -16 21 -27z m-7483
-14 c0 -8 -4 -12 -9 -9 -5 3 -6 10 -3 15 9 13 12 11 12 -6z m7510 -11 c-3 -4
-2 -16 4 -28 10 -20 10 -20 -5 -2 -14 18 -20 15 -17 -6 0 -4 -6 -5 -14 -2 -12
5 -10 10 8 25 21 17 38 26 24 13z m-7537 -61 c0 -3 -6 -3 -14 0 -7 3 -20 0
-27 -6 -11 -10 -11 -9 0 5 11 15 41 15 41 1z m7575 -2 c3 -5 2 -12 -3 -15 -5
-3 -9 1 -9 9 0 17 3 19 12 6z m-7590 -51 c3 -5 0 -7 -8 -4 -9 3 -22 -4 -31
-17 -8 -13 -18 -20 -21 -18 -6 7 33 49 45 49 5 0 12 -4 15 -10z m7635 -30 c0
-5 -2 -10 -4 -10 -3 0 -8 5 -11 10 -3 6 -1 10 4 10 6 0 11 -4 11 -10z m-7690
-26 c0 -8 -19 -13 -24 -6 -3 5 1 9 9 9 8 0 15 -2 15 -3z m7745 -55 c-4 -5 0
-18 9 -28 14 -15 14 -18 1 -18 -8 0 -12 4 -9 8 2 4 0 10 -6 14 -9 5 -14 -6
-12 -26 1 -3 -5 -6 -12 -6 -10 0 -8 9 6 34 11 18 22 33 25 33 2 0 1 -5 -2 -11z
m-7814 -42 c-8 -8 -14 -7 -23 2 -11 10 -9 11 6 5 15 -6 17 -4 11 6 -6 9 -4 11
4 5 9 -5 10 -10 2 -18z m-21 -59 c0 -5 -5 -6 -12 -2 -8 5 -9 2 -5 -9 3 -9 3
-19 -2 -21 -4 -3 -7 10 -7 29 1 26 4 31 13 23 7 -6 13 -15 13 -20z m7914 -44
c3 -8 2 -12 -4 -9 -6 3 -10 10 -10 16 0 14 7 11 14 -7z m-33 -30 c-5 -16 -10
-21 -10 -12 -1 18 10 51 15 45 2 -1 -1 -16 -5 -33z m-7951 -50 c0 -8 -19 -13
-24 -6 -3 5 1 9 9 9 8 0 15 -2 15 -3z m8037 -56 c-3 -7 -5 -2 -5 12 0 14 2 19
5 13 2 -7 2 -19 0 -25z m-8056 8 c11 6 10 3 -1 -10 -8 -11 -16 -14 -18 -7 -2
6 -8 9 -13 6 -5 -4 -6 1 -2 10 4 12 8 13 13 5 5 -8 13 -9 21 -4z m-41 -30 c0
-2 -8 -10 -17 -17 -16 -13 -17 -12 -4 4 13 16 21 21 21 13z m8111 -69 c-10 -9
-11 -8 -5 6 3 10 9 15 12 12 3 -3 0 -11 -7 -18z m84 -107 c1 -16 -1 -17 -13
-8 -9 8 -10 14 -3 16 6 2 8 9 4 15 -3 7 -2 9 2 4 5 -4 9 -16 10 -27z m-3888
-31 c66 -31 134 -99 179 -176 39 -65 89 -216 114 -338 13 -61 24 -112 26 -114
2 -2 61 28 131 67 386 214 640 284 914 253 283 -32 551 -175 780 -417 234
-248 359 -659 359 -1180 0 -246 -38 -807 -76 -1114 -9 -69 -19 -235 -24 -370
-5 -135 -13 -270 -20 -300 -6 -30 -17 -105 -25 -165 -26 -213 -103 -332 -262
-407 -288 -136 -628 68 -636 382 -1 36 4 481 11 990 13 982 10 1173 -24 1226
-42 66 -111 148 -156 184 -67 53 -242 110 -340 110 -117 0 -317 -75 -441 -166
-61 -45 -101 -108 -132 -210 -25 -80 -25 -81 -25 -520 0 -468 -11 -793 -35
-1044 -37 -384 -80 -619 -132 -728 -17 -34 -54 -83 -94 -123 -173 -173 -399
-198 -578 -63 -108 81 -170 178 -197 307 -13 59 -15 116 -9 317 3 135 10 540
15 900 22 1511 68 2180 167 2429 102 258 308 367 510 270z m3881 -14 c-3 -3
-9 2 -12 12 -6 14 -5 15 5 6 7 -7 10 -15 7 -18z m-8276 -7 c-9 -9 -15 -9 -24
1 -11 10 -10 11 5 6 10 -5 17 -2 17 6 0 7 3 9 7 6 4 -4 1 -13 -5 -19z m2655
-18 c64 -32 138 -100 179 -167 39 -63 85 -191 105 -293 33 -172 39 -363 39
-1270 0 -833 -6 -1129 -30 -1450 -6 -74 -17 -247 -25 -385 -22 -364 -46 -458
-148 -570 -87 -97 -199 -145 -339 -145 -209 0 -370 124 -438 337 -44 138 -54
266 -46 638 3 171 10 681 15 1135 10 834 14 943 52 1285 34 316 76 512 139
651 105 232 306 327 497 234z m5710 -145 c0 -8 -4 -15 -9 -15 -10 0 -11 14 -1
23 9 10 10 9 10 -8z m-26 -52 c-12 -20 -14 -14 -5 12 4 9 9 14 11 11 3 -2 0
-13 -6 -23z m-8417 -4 c3 -3 -5 -5 -19 -5 -13 0 -22 3 -19 7 4 8 30 6 38 -2z
m-9 -59 c3 -5 1 -10 -4 -10 -6 0 -11 5 -11 10 0 6 2 10 4 10 3 0 8 -4 11 -10z
m-108 -252 c-3 -7 -5 -2 -5 12 0 14 2 19 5 13 2 -7 2 -19 0 -25z m8711 -69
c-3 -8 -7 -3 -11 10 -4 17 -3 21 5 13 5 -5 8 -16 6 -23z m70 -474 c-3 -3 -9 2
-12 12 -6 14 -5 15 5 6 7 -7 10 -15 7 -18z m9 -97 c-3 -8 -6 -5 -6 6 -1 11 2
17 5 13 3 -3 4 -12 1 -19z m-8917 -14 c0 -8 -4 -12 -10 -9 -5 3 -10 10 -10 16
0 5 5 9 10 9 6 0 10 -7 10 -16z m-8 -206 c-2 -15 -5 -28 -7 -28 -2 0 -5 13 -7
28 -2 17 1 29 7 29 6 0 9 -12 7 -29z m5 -130 c-3 -8 -6 -5 -6 6 -1 11 2 17 5
13 3 -3 4 -12 1 -19z m-20 -620 c-3 -7 -5 -2 -5 12 0 14 2 19 5 13 2 -7 2 -19
0 -25z m25 -180 c-8 -8 -9 -4 -5 13 4 13 8 18 11 10 2 -7 -1 -18 -6 -23z m70
-302 c2 -19 0 -32 -4 -30 -8 5 -12 64 -4 64 2 0 6 -15 8 -34z m8825 -28 c-3
-8 -6 -5 -6 6 -1 11 2 17 5 13 3 -3 4 -12 1 -19z m-8816 -105 c-12 -20 -14
-14 -5 12 4 9 9 14 11 11 3 -2 0 -13 -6 -23z m64 -283 c3 -5 1 -10 -4 -10 -6
0 -11 5 -11 10 0 6 2 10 4 10 3 0 8 -4 11 -10z m60 -190 c10 -11 14 -20 9 -20
-5 0 -15 9 -22 20 -7 11 -11 20 -9 20 2 0 12 -9 22 -20z m8458 -155 c-3 -9 -8
-14 -10 -11 -3 3 -2 9 2 15 9 16 15 13 8 -4z m-8334 -109 c1 -6 -5 -1 -13 9
-8 11 -12 24 -8 29 5 9 20 -17 21 -38z m1 -31 c0 -2 -6 -8 -13 -14 -10 -8 -14
-7 -14 2 0 8 6 14 14 14 7 0 13 -1 13 -2z m111 -298 c-10 -9 -11 -8 -5 6 3 10
9 15 12 12 3 -3 0 -11 -7 -18z m43 -10 c-7 -18 -24 -23 -24 -7 0 6 5 10 11 10
6 0 8 7 4 18 -4 12 -3 14 5 6 6 -6 8 -18 4 -27z m7987 -34 c13 -16 12 -17 -3
-4 -10 7 -18 15 -18 17 0 8 8 3 21 -13z m-7936 -101 c-3 -3 -11 0 -18 7 -9 10
-8 11 6 5 10 -3 15 -9 12 -12z m107 -147 c3 -15 1 -22 -5 -18 -6 4 -8 0 -4
-10 9 -24 0 -21 -14 4 -8 15 -8 19 0 15 7 -4 11 1 11 13 0 29 7 26 12 -4z m28
-59 c0 -2 -8 -10 -17 -17 -16 -13 -17 -12 -4 4 13 16 21 21 21 13z m35 -26
c-5 -8 -11 -8 -17 -2 -6 6 -7 16 -3 22 5 8 11 8 17 2 6 -6 7 -16 3 -22z m7642
-32 c-2 -13 -4 -3 -4 22 0 25 2 35 4 23 2 -13 2 -33 0 -45z m-7642 -7 c3 -5 2
-12 -3 -15 -5 -3 -9 1 -9 9 0 17 3 19 12 6z m96 -158 c13 -16 12 -17 -3 -4
-10 7 -18 15 -18 17 0 8 8 3 21 -13z m53 -21 c-5 -4 -12 -11 -15 -15 -3 -5 -9
-2 -12 5 -3 9 3 14 15 15 11 1 16 -1 12 -5z m23 -9 c-4 -3 -2 -12 5 -20 9 -11
8 -13 -3 -11 -8 2 -13 -3 -11 -10 1 -8 -2 -11 -8 -7 -6 3 -7 12 -3 18 4 7 8
15 9 20 3 15 4 17 11 17 3 0 3 -3 0 -7z m17 -69 c3 -8 2 -12 -4 -9 -6 3 -10
10 -10 16 0 14 7 11 14 -7z m70 -20 c3 -8 2 -12 -4 -9 -6 3 -10 10 -10 16 0
14 7 11 14 -7z m-44 -14 c0 -5 -2 -10 -4 -10 -3 0 -8 5 -11 10 -3 6 -1 10 4
10 6 0 11 -4 11 -10z m7457 -32 c-3 -7 -5 -2 -5 12 0 14 2 19 5 13 2 -7 2 -19
0 -25z m-7417 -29 c0 -5 -4 -9 -8 -9 -5 0 -9 7 -9 15 0 8 4 12 9 9 4 -3 8 -9
8 -15z m113 4 c-7 -2 -19 -2 -25 0 -7 3 -2 5 12 5 14 0 19 -2 13 -5z m7542
-942 c-6 -5 -25 10 -25 20 0 5 6 4 14 -3 8 -7 12 -15 11 -17z m-6527 -42 c-3
-8 -7 -3 -11 10 -4 17 -3 21 5 13 5 -5 8 -16 6 -23z m58 -51 c3 -4 -1 -5 -10
-4 -8 1 -18 5 -22 8 -3 4 1 5 10 4 8 -1 18 -5 22 -8z m27 -23 c-7 -21 -12 -19
-10 4 0 11 5 18 9 15 4 -3 5 -11 1 -19z m5015 8 c-10 -2 -28 -2 -40 0 -13 2
-5 4 17 4 22 1 32 -1 23 -4z m-4971 -19 c-3 -3 -12 -4 -19 -1 -8 3 -5 6 6 6
11 1 17 -2 13 -5z m96 -51 c-3 -7 -8 -13 -12 -13 -4 0 -8 6 -8 13 0 8 6 14 13
14 7 0 10 -6 7 -14z m5517 -3 c-8 -5 -22 -9 -30 -9 -10 0 -8 3 5 9 27 12 43
12 25 0z m75 0 c-3 -5 -12 -10 -18 -10 -7 0 -6 4 3 10 19 12 23 12 15 0z m318
-87 c-7 -2 -21 -2 -30 0 -10 3 -4 5 12 5 17 0 24 -2 18 -5z m-1758 -13 c-3 -5
-11 -10 -16 -10 -6 0 -7 5 -4 10 3 6 11 10 16 10 6 0 7 -4 4 -10z m1750 -10
c3 -6 -1 -7 -9 -4 -18 7 -21 14 -7 14 6 0 13 -4 16 -10z m-1845 -47 c0 -3 -6
-3 -14 0 -7 3 -20 0 -27 -6 -11 -10 -11 -9 0 5 11 15 41 15 41 1z m1963 0 c-3
-7 -6 -13 -8 -13 -2 0 -5 6 -8 13 -3 8 1 14 8 14 7 0 11 -6 8 -14z m418 -6
c-10 -9 -11 -8 -5 6 3 10 9 15 12 12 3 -3 0 -11 -7 -18z m-6041 3 c-8 -5 -19
-10 -25 -10 -5 0 -3 5 5 10 8 5 20 10 25 10 6 0 3 -5 -5 -10z m-86 -8 c2 -4
-4 -8 -14 -8 -10 0 -16 4 -14 8 3 4 9 8 14 8 5 0 11 -4 14 -8z m6136 -26 c0
-2 -8 -10 -17 -17 -16 -13 -17 -12 -4 4 13 16 21 21 21 13z m34 -12 c3 -8 2
-12 -4 -9 -6 3 -10 10 -10 16 0 14 7 11 14 -7z m-5917 -54 c-6 -11 -13 -17
-16 -15 -2 3 1 11 7 18 9 10 8 17 -1 27 -10 12 -9 12 5 1 14 -10 15 -16 5 -31z
m3208 10 c3 -6 -1 -7 -9 -4 -18 7 -21 14 -7 14 6 0 13 -4 16 -10z m2562 4 c-3
-3 -12 -4 -19 -1 -8 3 -5 6 6 6 11 1 17 -2 13 -5z m-5663 -66 c-3 -4 0 -8 7
-8 7 0 9 -3 6 -6 -4 -4 -13 -2 -20 4 -8 7 -18 8 -22 4 -5 -4 -5 -2 -2 4 3 6
13 11 21 11 8 0 13 -4 10 -9z m63 -5 c0 -10 -4 -10 -16 -1 -9 7 -18 13 -20 15
-2 1 5 1 16 0 11 0 20 -7 20 -14z m5696 -7 c3 3 16 -1 29 -10 12 -9 17 -16 11
-16 -7 0 -15 5 -18 10 -4 6 -12 10 -18 9 -18 -3 -47 12 -47 24 0 5 8 3 18 -6
10 -10 21 -14 25 -11z m97 -6 c0 -5 -2 -10 -4 -10 -3 0 -8 5 -11 10 -3 6 -1
10 4 10 6 0 11 -4 11 -10z m-2988 -14 c7 4 8 2 4 -4 -4 -6 -13 -9 -21 -6 -8 4
-12 11 -8 17 5 8 8 7 11 -1 2 -7 9 -9 14 -6z m2978 -12 c0 -8 -19 -13 -24 -6
-3 5 1 9 9 9 8 0 15 -2 15 -3z m-3185 -44 c3 -5 2 -10 -4 -10 -5 0 -13 5 -16
10 -3 6 -2 10 4 10 5 0 13 -4 16 -10z m-2255 -14 c0 -2 -9 -6 -20 -9 -11 -3
-18 -1 -14 4 5 9 34 13 34 5z m289 -60 c9 -10 7 -17 -6 -27 -16 -13 -17 -12
-4 4 15 20 2 23 -19 5 -12 -11 -12 -10 -2 3 6 9 9 19 5 22 -3 4 -2 7 4 7 6 0
16 -6 22 -14z m1486 4 c-3 -5 -14 -10 -23 -10 -15 0 -15 2 -2 10 20 13 33 13
25 0z m-1385 -20 c8 -5 11 -10 5 -10 -5 0 -17 5 -25 10 -8 5 -10 10 -5 10 6 0
17 -5 25 -10z m1410 0 c-8 -5 -19 -10 -25 -10 -5 0 -3 5 5 10 8 5 20 10 25 10
6 0 3 -5 -5 -10z m-40 -20 c0 -5 -2 -10 -4 -10 -3 0 -8 5 -11 10 -3 6 -1 10 4
10 6 0 11 -4 11 -10z m-830 -40 c0 -5 -5 -10 -11 -10 -5 0 -7 5 -4 10 3 6 8
10 11 10 2 0 4 -4 4 -10z m495 -8 c-3 -3 -11 0 -18 7 -9 10 -8 11 6 5 10 -3
15 -9 12 -12z"/>
</g>
</svg>
